# vtk DataFile Version 2.0
L_Bracket, Created by Gmsh 4.15.0 
ASCII
DATASET UNSTRUCTURED_GRID
POINTS 395 double
0 0 0
100 0 0
100 25 0
25 25 0
25 100 0
0 100 0
3.999999999984052 0 0
7.9999999999684 0 0
11.99999999995462 0 0
15.99999999993488 0 0
19.99999999991412 0 0
23.99999999989335 0 0
27.99999999987259 0 0
31.99999999985316 0 0
35.99999999984654 0 0
39.99999999983999 0 0
43.99999999983343 0 0
47.99999999982686 0 0
51.99999999982031 0 0
55.99999999981375 0 0
59.99999999980719 0 0
63.99999999980319 0 0
67.99999999982487 0 0
71.99999999984675 0 0
75.99999999986865 0 0
79.99999999989055 0 0
83.99999999991243 0 0
87.99999999993432 0 0
91.9999999999562 0 0
95.99999999997809 0 0
100 3.571428571414516 0
100 7.142857142824549 0
100 10.71428571424454 0
100 14.28571428566726 0
100 17.85714285710376 0
100 21.42857142855188 0
96.05263157894255 25 0
92.10526315788512 25 0
88.15789473682767 25 0
84.21052631577024 25 0
80.26315789471279 25 0
76.31578947365536 25 0
72.36842105259791 25 0
68.42105263154048 25 0
64.47368421055111 25 0
60.52631578951718 25 0
56.57894736845971 25 0
52.63157894740225 25 0
48.68421052634478 25 0
44.73684210528732 25 0
40.78947368422985 25 0
36.84210526317239 25 0
32.89473684211492 25 0
28.94736842105746 25 0
25 28.94736842103838 0
25 32.89473684208223 0
25 36.84210526313931 0
25 40.78947368419639 0
25 44.73684210525347 0
25 48.68421052631054 0
25 52.63157894736761 0
25 56.57894736842469 0
25 60.52631578944772 0
25 64.47368421048611 0
25 68.4210526315432 0
25 72.3684210526003 0
25 76.31578947365739 0
25 80.26315789471451 0
25 84.2105263157716 0
25 88.15789473682869 0
25 92.1052631578858 0
25 96.05263157894291 0
21.42857142859681 100 0
17.85714285719362 100 0
14.28571428577883 100 0
10.71428571435027 100 0
7.142857142907918 100 0
3.571428571453957 100 0
0 96.00000000002842 0
0 92.00000000005686 0
0 88.00000000008528 0
0 84.0000000001137 0
0 80.00000000014212 0
0 76.00000000017056 0
0 72.00000000019898 0
0 68.0000000002274 0
0 64.00000000025561 0
0 60.00000000025817 0
0 56.00000000025818 0
0 52.0000000002582 0
0 48.00000000025821 0
0 44.00000000025822 0
0 40.00000000025823 0
0 36.0000000002557 0
0 32.00000000022747 0
0 28.00000000019905 0
0 24.0000000001706 0
0 20.00000000014217 0
0 16.00000000011374 0
0 12.00000000008531 0
0 8.000000000056858 0
0 4.000000000028436 0
3.392531225830355 13.84070683441704 0
17.6727221503196 4.048779814315171 0
12.40570316500615 96.88268222853071 0
97.17113594542299 12.545555733495 0
21.5502415583826 82.2293879583552 0
82.37161450283787 21.60801361486229 0
21.43669740999676 70.60686758449404 0
70.49125076285532 21.61903945542661 0
21.27155055207231 58.97314741826111 0
58.61020853555716 21.61545361167722 0
21.25257301166961 46.22200444279903 0
46.74731451438801 21.60182229706879 0
21.37532336162308 34.55273957158222 0
34.8850007416858 21.58766443214893 0
3.364813744017489 26.14666863158702 0
29.99999999986287 3.464101615120349 0
41.886747356554 3.661481319351207 0
3.568768076990055 42.41071529583528 0
53.88113078032447 3.66804669598033 0
3.270407439957707 53.88439422402038 0
66.2516509380111 3.57724159776887 0
3.359844608746302 65.68944578003979 0
3.489636371104432 77.42217418078009 0
78.81136697110895 3.74146865842072 0
3.299783977417906 33.99980227259947 0
86.20034370978007 3.141225450292684 0
3.427568999632499 85.82906805804416 0
26.97688900680247 21.57904404019014 0
23.01986067977131 21.58330675114716 0
25.00272336349934 18.15182982159762 0
21.03958219599077 18.15218849900161 0
19.05793357154688 21.5893363624937 0
17.07221411772958 18.15267812956862 0
9.719136656941652 3.956592781647272 0
90.13157894735639 21.5814786692678 0
21.89131540325986 89.83019533078034 0
23.02164531753071 14.71736759694478 0
26.99079168231694 14.71982881405063 0
15.09115675280216 21.59207036055562 0
17.0790120974966 25.02955537999208 0
13.09904389632026 18.15332036115829 0
15.08525262385619 14.7096916302365 0
13.11047834039702 25.03386522467632 0
15.10061044401193 28.47177230362312 0
25.00808021018369 11.35184902901591 0
28.98098571876504 11.3694072594851 0
11.12779623320447 28.47744043140835 0
13.12073137250223 31.91586475840606 0
94.11174528140754 2.874182363792862 0
2.958342901925345 94.25236139042269 0
21.03664847253594 11.28718145862953 0
30.95744029044969 14.73782393711238 0
32.95371879953017 11.30590484181454 0
34.93069213490445 14.73554273516529 0
36.72166013193114 11.41714654579576 0
38.87462480376831 14.7600399042534 0
40.62417782026776 10.83481316876999 0
42.82051703407249 14.66645686409037 0
44.87354861192847 11.31002422746997 0
46.83484744275444 14.73426014962374 0
48.64463960203797 11.42663022642452 0
50.79016095538239 14.77408748637345 0
52.56543140074752 10.84870295750721 0
54.75521618304244 14.7055096648769 0
56.79139373109314 11.32918535758721 0
58.76135857137527 14.76318606674322 0
60.57043193257668 11.4436182738288 0
62.71063376169063 14.79442683563793 0
64.50682851138272 10.86448017762917 0
66.7057625514863 14.7599138918093 0
68.70895191796474 11.34829957613326 0
70.68781181659369 14.76659563447944 0
72.68380678590253 11.34895978894589 0
74.66184391275111 14.79124495333968 0
76.65793941106907 11.36079872785222 0
78.63164493480157 14.77717935127679 0
80.62163272596848 11.37012463845713 0
82.59002798946392 14.77254641882857 0
84.57580320783615 11.38989652074275 0
86.52383047701608 14.77767775890191 0
88.48909974086349 11.43001620552636 0
90.3395195499094 14.73767343882093 0
11.12576892551229 14.72059950267416 0
9.35640125805096 18.26358383052856 0
13.096855837112 11.3304251493373 0
19.56579037271738 96.96922901384552 0
97.175690713946 19.56579037265494 0
23.32577261561925 7.844755100762247 0
35.05494618727178 7.677141011862632 0
46.86542672050854 7.869674497418098 0
58.78318760360797 7.888922861693734 0
9.28182347328941 11.38574688580683 0
3.398117614246282 6.005097790562868 0
70.70071481338523 7.90808081260465 0
40.83396209097697 18.16493152032337 0
52.72359341431832 18.18731521927747 0
64.63580362390141 18.20347143958863 0
76.53435916310634 18.21697820496646 0
19.04493583537883 28.35308020347714 0
9.235992736058515 32.04073163905527 0
11.13880451145316 35.36364031662103 0
14.99784586480296 35.42200198844684 0
13.22709032108765 38.74488387787195 0
16.9839153460679 38.86089998179834 0
15.12650792362095 42.23284002237352 0
10.66012747288996 41.99198467632331 0
13.06703141145103 45.63757334923635 0
9.176232645389518 45.68838370619375 0
11.15877163295715 49.11880151423376 0
15.04620822692701 49.05901340405201 0
13.15097697626218 52.54956396051995 0
17.67675239812809 52.56929633231565 0
15.16567120214244 55.99167163623061 0
11.19203953723706 56.00409916996156 0
13.19234185743379 59.44105285148297 0
9.217574220873617 59.45314127815837 0
11.21838186302105 62.88827342232396 0
15.19097922523773 62.87556493981732 0
13.2190881319527 66.32142409176888 0
7.194070352281187 49.13731740436176 0
17.06938586088657 66.23737874573206 0
15.08234446495227 69.6757427890453 0
11.22416754700409 69.75505912608392 0
13.22323015763438 73.18812665035202 0
9.267309339996405 73.21474340287179 0
11.27551381072941 76.64614790320994 0
15.24052152552632 76.63457944818612 0
13.27360932529942 80.07250491992953 0
9.433624314791897 80.07626277063713 0
11.34767278990178 83.49505152125484 0
15.1579986674049 83.54500258084626 0
13.28786224910005 86.89057005723863 0
9.539916376829849 86.97280281309929 0
11.40479341592731 90.2203998064244 0
15.24616214970216 90.27814172815302 0
9.316365036403896 24.92018762363242 0
82.61533124372906 8.089732061145877 0
7.766349495608392 90.22945216619428 0
7.455545415618499 69.89210340273409 0
18.98300278764354 42.42344402689078 0
5.539789337152809 73.51243052222812 0
92.13719278635411 11.33301716139052 0
90.45753444545724 8.124765070092099 0
94.28043443602367 8.151917617354998 0
19.04223087966239 62.71811372821472 0
10.04666461760616 93.47820669193109 0
6.830309291885174 63.31354079382375 0
4.913210294550563 59.73058615312781 0
19.27284393725514 7.729170141015902 0
11.3674438877276 7.912805986073238 0
21.20368804112369 66.32641486749236 0
84.47915238716138 18.1675659590343 0
90.21169170907093 2.980875176903384 0
3.840655141679592 90.12164257033895 0
5.452156926232971 46.07045662256348 0
7.077963433219902 83.68492271169998 0
16.72567259967133 87.21006264534614 0
7.062278134439823 7.783650144620587 0
13.71713861442251 4.239536492225696 0
86.59104725125452 8.213300582118464 0
21.94786472171548 86.06560573084434 0
82.27461641924945 3.227270161153379 0
3.339920009463727 81.825951420099 0
17.84654153844136 80.25330541928314 0
18.79178829027926 76.58611298602209 0
17.71555182392882 72.86484364535461 0
36.8891389769466 18.17082312206912 0
17.16639146823238 59.4350310353062 0
72.56925048539667 18.19962248807902 0
17.67657399382618 32.22745831606969 0
60.65263406245914 18.20119164967121 0
48.76006121938268 18.18253570086981 0
78.58564767877067 7.789756194451494 0
3.462522667792668 29.99726518314643 0
3.46252266778319 37.99726518318694 0
6.938746345860364 40.00148755610679 0
7.123761407974373 35.68808313921568 0
74.4817663648481 7.996197168046438 0
72.56828660656812 3.969221846595983 0
7.508370737766747 76.81521705825683 0
17.08240106578623 45.69262669761454 0
61.8061553882781 4.344287226341331 0
64.10242148619061 6.98998515505917 0
57.62575404023492 4.010170126915135 0
3.783797483804547 21.83956058330625 0
3.448974153300973 17.54300704006519 0
33.9972651827798 3.462522667753057 0
37.80361730594999 4.32713052243927 0
40.26699788410158 7.102125857990586 0
49.77028470049432 4.35502096252893 0
52.16415251016838 7.062618433849476 0
45.64230536923675 4.001086709791817 0
22.21807552812797 3.693298659147567 0
26.04900468746222 5.044084438610628 0
3.310431489661297 9.917176578775877 0
20.88367715773666 24.91210087885435 0
28.96929383581445 18.15585388788223 0
21.08680468407658 38.80805436487407 0
21.58147866928775 54.60526315789615 0
21.58147866926814 50.65789473683907 0
9.326732353217428 52.49037358721225 0
11.20837015250412 21.58269296499462 0
30.96671095862825 7.506688151011987 0
19.05367251215395 14.71498866491284 0
9.248250814742612 66.33715615223022 0
6.938400650307465 28.28239927856371 0
30.92616880594981 21.58197279531744 0
6.706668361902775 55.83573344762847 0
17.10600912779003 11.33169346689514 0
32.92628913095847 18.16161348494923 0
88.45464163190157 18.12413341411083 0
91.92858429175433 18.09286592105149 0
38.81578947370112 21.6104362562935 0
15.88586638394265 96.82195793251074 0
17.8571428571935 93.72858643480207 0
42.78113298435515 21.59781360138408 0
97.19265218666965 16.10779349480477 0
44.80655625257943 18.15856630321897 0
50.68225823193613 21.61365850662074 0
54.65406439664496 21.59640036078459 0
56.69284586056621 18.1781760955051 0
86.29250090988342 21.61898135444551 0
3.453929086480322 49.60082887192684 0
62.55766910717195 21.61640224999666 0
66.54626538832784 21.59090417539081 0
68.60602410476019 18.18992451412896 0
74.42809077029926 21.62350725395749 0
80.48271211025919 18.20794782070688 0
78.39928731914513 21.60940781574885 0
3.570094350923299 70.00492125795246 0
13.80772209822966 93.56832913705865 0
21.65219464321204 93.82750289531144 0
94.12723095239753 21.4669559646353 0
6.983843880568571 15.20321885327797 0
7.674258575594692 21.63302648477836 0
96.49774739475508 5.586536758693032 0
5.321488446036255 96.96565482414309 0
8.928571428629095 97.02413902071638 0
5.949821601224989 3.418522744490797 0
21.69983815636176 30.9045827338057 0
21.67207859303944 74.43232806117371 0
94.092604015562 14.48742402071324 0
15.37216892577114 7.765401841643741 0
27.18253292907502 8.19241643490923 0
3.020672839036408 62.54671454550103 0
43.3517261921768 7.650955968033103 0
55.29675847537663 7.665604759461202 0
18.55434668375265 48.83362856542833 0
97.25260945885702 9.039765640586847 0
67.25027897835122 7.573757917251133 0
69.35418626723029 5.009409516139395 0
21.75924697735066 78.57180781388826 0
18.5723688579726 56.31488191600194 0
18.80949989808856 84.56990954585466 0
18.52496790554049 90.55952970975792 0
22.26447609667795 42.59596372480275 0
18.42409265007934 35.97423084455423 0
9.817706011853103 38.35801591322775 0
18.50153352017762 69.14224952642367 0
22.33169517091591 62.57395371626227 0
6.108408253051964 79.9916670690388 0
6.330490689394047 87.36757766387535 0
2.978057219282209 57.0901427650586 0
7.159206293472574 43.23260557140452 0
6.454409603346479 93.42522471529884 0
6.039558741315878 52.11363385176769 0
5.952442776415277 31.99765071144953 0
6.009661963451323 11.87360470291261 0
2.928203230291968 2.928203230303861 0
22.32569022989545 27.62342644743512 0
6.108871358259943 24.39685072966695 0
2.424097060860336 73.89178836349151 0
97.47111064905721 22.49226355316843 0
22.45910423762945 97.34305635820526 0
92.35540408851872 5.612516247596341 0
97.34101504229042 2.523777438336658 0
2.523777438383656 97.34101504227567 0
6.311182941351575 66.94046910005422 0
2.292546263953878 46.00426909592413 0
88.41166298315457 5.674923487253623 0
75.83227328298557 4.899038445942036 0
6.249455070263949 18.89647935839126 0
61.85429354995583 8.378594805100482 0
84.4567792857531 5.714319031288264 0
49.82868897875983 8.435214424891013 0
28.65490805724342 6.044912604724384 0
37.89581144155918 8.416253974139721 0
80.83016947708532 5.880384659303251 0
94.93131207131894 10.83517497782885 0
69.73916054445039 2.370480539065275 0
26.0139046341918 2.128526013605407 0
94.95069581615687 17.8797956834409 0
19.59381159058675 87.78106983478419 0

CELLS 794 3062
1 0
1 1
1 2
1 3
1 4
1 5
2 0 6
2 6 7
2 7 8
2 8 9
2 9 10
2 10 11
2 11 12
2 12 13
2 13 14
2 14 15
2 15 16
2 16 17
2 17 18
2 18 19
2 19 20
2 20 21
2 21 22
2 22 23
2 23 24
2 24 25
2 25 26
2 26 27
2 27 28
2 28 29
2 29 1
2 1 30
2 30 31
2 31 32
2 32 33
2 33 34
2 34 35
2 35 2
2 2 36
2 36 37
2 37 38
2 38 39
2 39 40
2 40 41
2 41 42
2 42 43
2 43 44
2 44 45
2 45 46
2 46 47
2 47 48
2 48 49
2 49 50
2 50 51
2 51 52
2 52 53
2 53 3
2 3 54
2 54 55
2 55 56
2 56 57
2 57 58
2 58 59
2 59 60
2 60 61
2 61 62
2 62 63
2 63 64
2 64 65
2 65 66
2 66 67
2 67 68
2 68 69
2 69 70
2 70 71
2 71 4
2 4 72
2 72 73
2 73 74
2 74 75
2 75 76
2 76 77
2 77 5
2 5 78
2 78 79
2 79 80
2 80 81
2 81 82
2 82 83
2 83 84
2 84 85
2 85 86
2 86 87
2 87 88
2 88 89
2 89 90
2 90 91
2 91 92
2 92 93
2 93 94
2 94 95
2 95 96
2 96 97
2 97 98
2 98 99
2 99 100
2 100 101
2 101 0
3 120 285 348
3 103 250 344
3 23 24 280
3 8 9 260
3 280 24 382
3 118 293 347
3 260 103 344
3 283 192 285
3 192 283 384
3 114 271 341
3 291 191 293
3 191 291 386
3 190 288 289
3 285 192 348
3 117 288 304
3 288 190 304
3 190 289 388
3 271 114 358
3 189 250 294
3 250 103 294
3 293 191 347
3 241 112 282
3 135 251 259
3 300 213 301
3 267 108 342
3 135 259 340
3 9 103 260
3 316 315 332
3 87 249 346
3 110 246 269
3 249 87 364
3 135 8 260
3 106 265 353
3 108 267 360
3 124 242 281
3 112 241 357
3 236 316 332
3 289 290 388
3 24 125 382
3 291 292 386
3 283 284 384
3 242 124 373
3 339 338 366
3 287 102 335
3 342 66 353
3 257 128 264
3 246 110 361
3 201 202 278
3 104 247 332
3 213 300 354
3 265 106 355
3 56 57 299
3 248 123 346
3 287 335 383
3 315 104 332
3 284 122 351
3 351 122 352
3 301 213 349
3 292 120 348
3 265 266 353
3 333 316 356
3 290 118 347
3 189 294 295
3 63 64 252
3 123 248 379
3 247 104 339
3 256 221 324
3 251 135 260
3 271 200 341
3 337 245 376
3 247 339 366
3 207 277 359
3 64 108 252
3 277 207 365
3 137 333 356
3 266 342 353
3 266 267 342
3 150 337 376
3 259 194 340
3 275 116 307
3 114 56 299
3 128 257 363
3 201 278 368
3 256 324 380
3 194 259 296
3 136 313 334
3 199 329 330
3 136 312 313
3 329 107 330
3 299 57 357
3 158 290 347
3 164 292 348
3 28 150 254
3 170 284 351
3 326 198 327
3 282 112 349
3 253 312 323
3 80 128 255
3 109 326 327
3 107 253 323
3 312 136 323
3 255 239 366
3 121 309 364
3 183 182 243
3 125 274 382
3 151 79 255
3 270 199 328
3 28 29 150
3 78 79 151
3 181 182 183
3 39 107 323
3 307 116 372
3 167 272 322
3 127 27 254
3 69 137 262
3 110 269 354
3 181 180 182
3 234 233 235
3 328 199 330
3 272 111 322
3 26 127 263
3 231 232 233
3 239 235 247
3 272 198 325
3 161 273 319
3 253 107 329
3 69 70 137
3 37 38 136
3 235 233 236
3 273 113 319
3 27 28 254
3 180 238 261
3 155 268 311
3 82 124 264
3 231 234 257
3 26 27 127
3 80 81 128
3 179 180 181
3 231 233 234
3 325 198 326
3 284 170 384
3 243 244 245
3 268 115 311
3 273 197 320
3 225 223 267
3 128 81 264
3 231 229 232
3 230 229 231
3 179 178 180
3 292 164 386
3 79 80 255
3 312 183 313
3 111 321 322
3 290 158 388
3 117 304 387
3 125 25 263
3 68 69 262
3 230 231 257
3 25 26 263
3 177 178 179
3 133 130 297
3 320 197 321
3 247 235 332
3 289 118 290
3 234 235 239
3 106 68 262
3 145 200 271
3 216 214 269
3 130 3 297
3 15 118 289
3 119 276 277
3 163 197 273
3 169 198 272
3 175 199 270
3 270 109 327
3 268 196 314
3 206 241 282
3 283 122 284
3 291 120 292
3 126 94 275
3 119 92 276
3 120 19 285
3 17 291 293
3 179 181 253
3 227 228 229
3 228 225 267
3 21 122 283
3 18 120 291
3 227 225 228
3 222 246 252
3 113 317 319
3 276 126 278
3 98 102 287
3 177 176 178
3 222 219 246
3 173 175 270
3 203 149 271
3 157 159 196
3 161 163 273
3 163 165 197
3 167 169 272
3 169 171 198
3 277 276 278
3 149 145 271
3 174 195 279
3 155 157 268
3 145 141 200
3 175 177 199
3 187 316 333
3 81 82 264
3 208 206 282
3 211 208 282
3 204 203 205
3 206 205 241
3 157 196 268
3 212 211 213
3 220 219 222
3 175 176 177
3 151 255 366
3 202 149 203
3 93 126 276
3 95 116 275
3 20 283 285
3 118 16 293
3 288 14 289
3 117 13 288
3 219 216 269
3 103 10 294
3 210 208 211
3 226 225 227
3 218 216 219
3 116 96 286
3 129 131 298
3 180 178 238
3 233 232 258
3 21 22 122
3 93 94 126
3 95 96 116
3 88 89 121
3 24 25 125
3 18 19 120
3 91 92 119
3 9 10 103
3 15 16 118
3 12 13 117
3 85 86 123
3 82 83 124
3 14 15 289
3 20 21 283
3 17 18 291
3 141 133 297
3 265 228 266
3 286 97 287
3 246 219 269
3 97 98 287
3 92 93 276
3 94 95 275
3 19 20 285
3 16 17 293
3 13 14 288
3 204 205 206
3 153 154 155
3 243 182 244
3 202 203 204
3 10 11 294
3 176 174 279
3 212 213 214
3 220 222 223
3 155 156 157
3 157 158 159
3 279 195 280
3 159 160 161
3 210 211 212
3 131 139 298
3 161 162 163
3 218 219 220
3 163 164 165
3 165 166 167
3 167 168 169
3 169 170 171
3 171 172 173
3 173 174 175
3 96 97 286
3 139 147 153
3 227 229 230
3 175 174 176
3 100 194 296
3 98 99 102
3 241 205 299
3 102 99 296
3 242 226 281
3 7 8 135
3 99 100 296
3 144 141 145
3 200 141 297
3 139 153 298
3 100 101 194
3 314 196 317
3 140 133 141
3 148 145 149
3 153 147 154
3 201 149 202
3 155 154 156
3 157 156 158
3 207 206 208
3 159 158 160
3 161 160 162
3 163 162 164
3 165 164 166
3 167 166 168
3 169 168 170
3 215 214 216
3 171 170 172
3 224 223 225
3 173 172 174
3 209 208 210
3 217 216 218
3 226 227 281
3 266 228 267
3 229 228 265
3 140 141 144
3 144 145 148
3 182 180 261
3 42 43 109
3 53 3 129
3 45 46 111
3 55 56 114
3 64 65 108
3 67 68 106
3 51 52 115
3 48 49 113
3 58 59 112
3 39 40 107
3 61 62 110
3 59 60 301
3 60 61 300
3 131 138 139
3 204 206 207
3 212 214 215
3 220 223 224
3 148 149 201
3 184 142 185
3 251 193 259
3 132 130 133
3 153 155 311
3 186 193 251
3 232 229 265
3 139 146 147
3 207 208 209
3 134 133 140
3 215 216 217
3 224 225 226
3 143 184 186
3 209 210 221
3 217 218 248
3 134 142 143
3 189 152 250
3 186 184 193
3 144 148 237
3 156 154 190
3 52 53 308
3 162 160 191
3 168 166 192
3 174 172 195
3 139 138 146
3 129 3 130
3 134 140 142
3 143 142 184
3 146 138 152
3 209 221 256
3 224 226 240
3 217 248 249
3 132 133 134
3 146 152 189
3 240 226 242
3 210 212 302
3 178 176 274
3 112 59 301
3 61 110 300
3 60 300 301
3 218 220 306
3 129 298 308
3 131 132 138
3 221 210 302
3 248 218 306
3 274 176 279
3 115 308 311
3 140 144 303
3 109 270 328
3 185 142 303
3 131 130 132
3 53 129 308
3 115 52 308
3 227 230 281
3 212 215 302
3 220 224 306
3 129 130 131
3 154 147 304
3 142 140 303
3 144 237 303
3 190 154 304
3 152 138 305
3 134 143 305
3 224 240 306
3 111 272 325
3 115 268 314
3 148 201 307
3 152 305 310
3 305 143 310
3 138 132 305
3 237 148 307
3 321 197 322
3 132 134 305
3 113 273 320
3 317 196 319
3 308 298 311
3 217 249 309
3 215 217 309
3 253 181 312
3 302 215 309
3 143 186 310
3 238 178 274
3 250 152 310
3 159 161 319
3 51 115 314
3 298 153 311
3 113 49 317
3 236 233 258
3 181 183 312
3 316 236 356
3 50 51 314
3 165 167 322
3 121 89 324
3 48 113 320
3 70 71 333
3 36 37 334
3 111 46 321
3 50 314 317
3 49 50 317
3 173 270 327
3 198 171 327
3 45 111 325
3 196 159 319
3 38 39 323
3 109 43 326
3 179 253 329
3 199 177 329
3 244 182 261
3 34 35 188
3 72 73 187
3 47 48 320
3 42 109 328
3 33 34 318
3 73 74 315
3 84 85 331
3 107 40 330
3 74 75 104
3 32 33 105
3 47 320 321
3 46 47 321
3 117 295 392
3 309 249 364
3 296 259 369
3 136 38 323
3 193 184 335
3 197 165 322
3 313 183 343
3 89 90 324
3 44 45 325
3 251 260 344
3 303 237 336
3 63 252 361
3 44 325 326
3 274 125 389
3 43 44 326
3 6 7 340
3 189 295 345
3 171 173 327
3 54 55 341
3 41 42 328
3 309 121 367
3 177 179 329
3 34 188 318
3 187 73 315
3 41 328 330
3 40 41 330
3 74 104 315
3 105 33 318
3 240 242 331
3 23 280 391
3 85 123 331
3 187 315 316
3 235 236 332
3 355 262 394
3 184 185 335
3 137 70 333
3 37 136 334
3 252 108 360
3 65 66 342
3 30 31 337
3 76 77 338
3 185 303 336
3 241 299 357
3 186 251 344
3 249 248 346
3 258 355 394
3 75 76 339
3 104 75 339
3 146 189 345
3 86 87 346
3 304 147 345
3 239 255 363
3 250 310 344
3 213 211 349
3 160 158 347
3 232 265 355
3 7 135 340
3 278 202 359
3 84 331 373
3 214 213 354
3 166 164 348
3 295 294 392
3 66 67 353
3 172 170 351
3 259 193 369
3 55 114 341
3 334 313 393
3 267 223 360
3 105 318 343
3 245 337 350
3 237 307 372
3 76 338 339
3 119 256 380
3 203 271 358
3 114 299 358
3 299 205 358
3 222 252 360
3 257 264 362
3 286 287 383
3 188 334 393
3 58 112 357
3 257 234 363
3 278 126 368
3 204 207 359
3 331 242 373
3 110 62 361
3 255 128 363
3 297 3 371
3 87 88 364
3 3 54 371
3 294 11 392
3 207 209 365
3 122 22 391
3 12 117 392
3 124 83 373
3 101 0 370
3 0 6 370
3 91 119 380
3 252 246 361
3 274 279 382
3 236 258 356
3 302 309 367
3 158 156 388
3 164 162 386
3 32 105 350
3 170 168 384
3 105 343 390
3 248 306 379
3 336 286 383
3 108 65 342
3 71 4 375
3 2 36 374
3 183 243 343
3 29 1 377
3 5 78 378
3 295 117 387
3 256 119 365
3 106 262 355
3 324 90 380
3 337 31 350
3 310 186 344
3 300 110 354
3 240 331 379
3 331 123 379
3 147 146 345
3 35 2 374
3 4 72 375
3 119 277 365
3 338 151 366
3 112 301 349
3 123 86 346
3 277 278 359
3 1 30 377
3 77 5 378
3 335 185 383
3 230 257 362
3 191 160 347
3 352 122 391
3 124 281 362
3 211 282 349
3 192 166 348
3 343 243 390
3 333 71 375
3 36 334 374
3 31 32 350
3 195 172 351
3 195 351 352
3 280 195 352
3 269 214 354
3 275 307 368
3 67 106 353
3 313 343 393
3 307 201 368
3 254 150 376
3 281 230 362
3 187 333 375
3 334 188 374
3 258 232 355
3 150 29 377
3 78 151 378
3 263 127 385
3 127 254 381
3 263 385 389
3 116 286 372
3 264 124 362
3 57 58 357
3 205 203 358
3 202 204 359
3 121 324 367
3 223 222 360
3 125 263 389
3 62 63 361
3 127 381 385
3 102 296 369
3 239 247 366
3 324 221 367
3 88 121 364
3 6 340 370
3 126 275 368
3 209 256 365
3 234 239 363
3 54 341 371
3 286 336 372
3 221 302 367
3 254 376 381
3 193 335 369
3 243 245 390
3 261 238 385
3 194 101 370
3 200 297 371
3 262 137 394
3 385 238 389
3 83 84 373
3 336 237 372
3 343 318 393
3 335 102 369
3 245 244 376
3 337 150 377
3 151 338 378
3 90 91 380
3 306 240 379
3 356 258 394
3 304 345 387
3 279 280 382
3 381 261 385
3 168 192 384
3 22 23 391
3 11 12 392
3 162 191 386
3 156 190 388
3 350 105 390
3 238 274 389
3 188 35 374
3 72 187 375
3 340 194 370
3 244 261 381
3 376 244 381
3 341 200 371
3 30 337 377
3 338 77 378
3 280 352 391
3 185 336 383
3 318 188 393
3 345 295 387
3 245 350 390
3 137 356 394

CELL_TYPES 794
1
1
1
1
1
1
3
3
3
3
3
3
3
3
3
3
3
3
3
3
3
3
3
3
3
3
3
3
3
3
3
3
3
3
3
3
3
3
3
3
3
3
3
3
3
3
3
3
3
3
3
3
3
3
3
3
3
3
3
3
3
3
3
3
3
3
3
3
3
3
3
3
3
3
3
3
3
3
3
3
3
3
3
3
3
3
3
3
3
3
3
3
3
3
3
3
3
3
3
3
3
3
3
3
3
3
3
3
5
5
5
5
5
5
5
5
5
5
5
5
5
5
5
5
5
5
5
5
5
5
5
5
5
5
5
5
5
5
5
5
5
5
5
5
5
5
5
5
5
5
5
5
5
5
5
5
5
5
5
5
5
5
5
5
5
5
5
5
5
5
5
5
5
5
5
5
5
5
5
5
5
5
5
5
5
5
5
5
5
5
5
5
5
5
5
5
5
5
5
5
5
5
5
5
5
5
5
5
5
5
5
5
5
5
5
5
5
5
5
5
5
5
5
5
5
5
5
5
5
5
5
5
5
5
5
5
5
5
5
5
5
5
5
5
5
5
5
5
5
5
5
5
5
5
5
5
5
5
5
5
5
5
5
5
5
5
5
5
5
5
5
5
5
5
5
5
5
5
5
5
5
5
5
5
5
5
5
5
5
5
5
5
5
5
5
5
5
5
5
5
5
5
5
5
5
5
5
5
5
5
5
5
5
5
5
5
5
5
5
5
5
5
5
5
5
5
5
5
5
5
5
5
5
5
5
5
5
5
5
5
5
5
5
5
5
5
5
5
5
5
5
5
5
5
5
5
5
5
5
5
5
5
5
5
5
5
5
5
5
5
5
5
5
5
5
5
5
5
5
5
5
5
5
5
5
5
5
5
5
5
5
5
5
5
5
5
5
5
5
5
5
5
5
5
5
5
5
5
5
5
5
5
5
5
5
5
5
5
5
5
5
5
5
5
5
5
5
5
5
5
5
5
5
5
5
5
5
5
5
5
5
5
5
5
5
5
5
5
5
5
5
5
5
5
5
5
5
5
5
5
5
5
5
5
5
5
5
5
5
5
5
5
5
5
5
5
5
5
5
5
5
5
5
5
5
5
5
5
5
5
5
5
5
5
5
5
5
5
5
5
5
5
5
5
5
5
5
5
5
5
5
5
5
5
5
5
5
5
5
5
5
5
5
5
5
5
5
5
5
5
5
5
5
5
5
5
5
5
5
5
5
5
5
5
5
5
5
5
5
5
5
5
5
5
5
5
5
5
5
5
5
5
5
5
5
5
5
5
5
5
5
5
5
5
5
5
5
5
5
5
5
5
5
5
5
5
5
5
5
5
5
5
5
5
5
5
5
5
5
5
5
5
5
5
5
5
5
5
5
5
5
5
5
5
5
5
5
5
5
5
5
5
5
5
5
5
5
5
5
5
5
5
5
5
5
5
5
5
5
5
5
5
5
5
5
5
5
5
5
5
5
5
5
5
5
5
5
5
5
5
5
5
5
5
5
5
5
5
5
5
5
5
5
5
5
5
5
5
5
5
5
5
5
5
5
5
5
5
5
5
5
5
5
5
5
5
5
5
5
5
5
5
5
5
5
5
5
5
5
5
5
5
5
5
5
5
5
5
5
5
5
5
5
5
5
5
5
5
5
5
5
5
5
5
5
5
5
5
5
5
5
5
5
5
5
5
5
5
5
5
5
5
5
5
5
5
5
5
5
5
5
5
5
5
5
5
5
5
5
5
5
5
5
5
5
5
5
5
5
5
5
5
5
5
5
5
5
5
5
5
5
5
5
5
